<?xml version="1.0" encoding="UTF-8" standalone="no"?>
<svg
   xmlns:dc="http://purl.org/dc/elements/1.1/"
   xmlns:cc="http://creativecommons.org/ns#"
   xmlns:rdf="http://www.w3.org/1999/02/22-rdf-syntax-ns#"
   xmlns:svg="http://www.w3.org/2000/svg"
   xmlns="http://www.w3.org/2000/svg"
   viewBox="0 0 1365.3333 682.66669"
   height="682.66669"
   width="1365.3333"
   xml:space="preserve"
   id="svg2"
   version="1.1"><metadata
     id="metadata8"><rdf:RDF><cc:Work
         rdf:about=""><dc:format>image/svg+xml</dc:format><dc:type
           rdf:resource="http://purl.org/dc/dcmitype/StillImage" /></cc:Work></rdf:RDF></metadata><defs
     id="defs6"><clipPath
       id="clipPath22"
       clipPathUnits="userSpaceOnUse"><path
         id="path20"
         d="M 0,512 H 1024 V 0 H 0 Z" /></clipPath></defs><g
     transform="matrix(1.3333333,0,0,-1.3333333,0,682.66667)"
     id="g10"><g
       transform="translate(6,181.2139)"
       id="g12"><path
         id="path14"
         style="fill:#0c496d;fill-opacity:1;fill-rule:nonzero;stroke:none"
         d="m 0,0 h 28.485 v -64.718 h 74.061 V 0 h 28.485 v -162.707 h -28.485 v 73.378 H 28.485 v -73.378 H 0 Z" /></g><g
       id="g16"><g
         clip-path="url(#clipPath22)"
         id="g18"><g
           transform="translate(229.8411,77.5283)"
           id="g24"><path
             id="path26"
             style="fill:#0c496d;fill-opacity:1;fill-rule:nonzero;stroke:none"
             d="m 0,0 c -7.976,-5.241 -20.281,-5.014 -31.903,-7.065 -11.167,-1.822 -21.193,-5.925 -21.193,-19.597 0,-11.85 14.812,-15.04 23.927,-15.04 11.394,0 29.169,5.924 29.169,22.331 z m 25.978,-32.815 c 0,-6.381 1.367,-8.887 6.153,-8.887 h 2.735 c 1.139,0 2.278,0.227 3.645,0.455 v -18.002 c -3.873,-1.367 -12.077,-2.963 -16.407,-2.963 -10.71,0 -18.002,3.647 -20.053,14.357 -10.255,-10.026 -26.89,-14.357 -40.791,-14.357 -21.193,0 -40.335,11.394 -40.335,34.41 0,29.397 23.472,34.183 45.349,36.689 18.914,3.646 35.321,1.139 35.321,16.635 0,13.674 -14.129,15.953 -24.383,15.953 -14.585,0 -24.839,-5.925 -25.979,-18.687 h -25.978 c 1.823,30.308 27.346,39.196 53.552,39.196 23.016,0 47.171,-9.344 47.171,-34.183 z" /></g><g
           transform="translate(265.3894,136.3216)"
           id="g28"><path
             id="path30"
             style="fill:#0c496d;fill-opacity:1;fill-rule:nonzero;stroke:none"
             d="m 0,0 h 27.573 l 23.016,-87.962 h 0.456 L 73.15,0 h 26.206 l 21.192,-87.962 h 0.456 L 144.932,0 h 26.434 L 134.45,-117.815 H 107.787 L 85.911,-30.309 H 85.455 L 63.806,-117.815 H 36.461 Z" /></g><g
           transform="translate(518.881,77.5283)"
           id="g32"><path
             id="path34"
             style="fill:#0c496d;fill-opacity:1;fill-rule:nonzero;stroke:none"
             d="m 0,0 c -7.976,-5.241 -20.281,-5.014 -31.903,-7.065 -11.167,-1.822 -21.193,-5.925 -21.193,-19.597 0,-11.85 14.812,-15.04 23.927,-15.04 11.394,0 29.169,5.924 29.169,22.331 z m 25.978,-32.815 c 0,-6.381 1.367,-8.887 6.153,-8.887 h 2.735 c 1.139,0 2.278,0.227 3.645,0.455 v -18.002 c -3.873,-1.367 -12.077,-2.963 -16.407,-2.963 -10.71,0 -18.002,3.647 -20.053,14.357 -10.255,-10.026 -26.89,-14.357 -40.791,-14.357 -21.193,0 -40.335,11.394 -40.335,34.41 0,29.397 23.472,34.183 45.349,36.689 18.914,3.646 35.321,1.139 35.321,16.635 0,13.674 -14.129,15.953 -24.383,15.953 -14.585,0 -24.839,-5.925 -25.979,-18.687 h -25.978 c 1.823,30.308 27.346,39.196 53.552,39.196 23.016,0 47.171,-9.344 47.171,-34.183 z" /></g><path
           id="path36"
           style="fill:#0c496d;fill-opacity:1;fill-rule:nonzero;stroke:none"
           d="m 571.155,136.322 h 25.978 V 18.507 h -25.978 z" /><path
           id="path38"
           style="fill:#0c496d;fill-opacity:1;fill-rule:nonzero;stroke:none"
           d="m 620.991,136.322 h 25.978 V 18.507 h -25.978 z" /><g
           transform="translate(692.2118,181.2139)"
           id="g40"><path
             id="path42"
             style="fill:#595959;fill-opacity:1;fill-rule:nonzero;stroke:none"
             d="m 0,0 h 56.058 l 20.053,-106.876 h 0.456 L 95.938,0 h 55.374 v -162.707 h -35.549 v 126.702 h -0.456 L 90.469,-162.707 H 60.844 L 34.638,-36.005 H 34.182 V -162.707 H 0 Z" /></g><path
           id="path44"
           style="fill:#595959;fill-opacity:1;fill-rule:nonzero;stroke:none"
           d="m 864.79,181.214 h 38.284 V 18.507 H 864.79 Z" /><g
           transform="translate(924.3411,181.2139)"
           id="g46"><path
             id="path48"
             style="fill:#595959;fill-opacity:1;fill-rule:nonzero;stroke:none"
             d="m 0,0 h 38.284 v -131.716 h 55.375 v -30.991 H 0 Z" /></g><g
           transform="translate(551.55,392.158)"
           id="g50"><path
             id="path52"
             style="fill:#009fd8;fill-opacity:1;fill-rule:nonzero;stroke:none"
             d="m 0,0 -37.451,-27.877 14.678,-44.321 -38.087,27.004 -37.615,-27.655 13.913,44.566 -37.926,27.229 46.685,0.54 14.176,44.483 14.94,-44.233 z" /></g><g
           transform="translate(334.9319,469.5105)"
           id="g54"><path
             id="path56"
             style="fill:#009fd8;fill-opacity:1;fill-rule:nonzero;stroke:none"
             d="m 0,0 -23.145,-17.228 9.071,-27.39 -23.537,16.688 -23.247,-17.091 8.599,27.542 -23.439,16.828 28.852,0.333 8.761,27.491 9.232,-27.336 z" /></g><g
           transform="translate(419.5964,453.986)"
           id="g58"><path
             id="path60"
             style="fill:#009fd8;fill-opacity:1;fill-rule:nonzero;stroke:none"
             d="m 0,0 -23.145,-17.228 9.071,-27.39 -23.537,16.688 -23.247,-17.091 8.599,27.542 -23.439,16.828 28.852,0.333 8.761,27.491 9.232,-27.336 z" /></g><g
           transform="translate(241.4084,455.5835)"
           id="g62"><path
             id="path64"
             style="fill:#009fd8;fill-opacity:1;fill-rule:nonzero;stroke:none"
             d="m 0,0 -23.145,-17.228 9.071,-27.39 -23.537,16.688 -23.247,-17.091 8.599,27.542 -23.439,16.828 28.852,0.333 8.761,27.491 9.232,-27.336 z" /></g><g
           transform="translate(429.1891,367.2224)"
           id="g66"><path
             id="path68"
             style="fill:#009fd8;fill-opacity:1;fill-rule:nonzero;stroke:none"
             d="m 0,0 -14.304,-10.647 5.606,-16.927 -14.546,10.313 -14.366,-10.562 5.314,17.021 -14.485,10.399 17.83,0.207 5.414,16.989 5.706,-16.894 z" /></g><g
           transform="translate(158.5886,418.964)"
           id="g70"><path
             id="path72"
             style="fill:#009fd8;fill-opacity:1;fill-rule:nonzero;stroke:none"
             d="m 0,0 -14.304,-10.647 5.606,-16.927 -14.546,10.313 -14.366,-10.562 5.314,17.021 -14.485,10.399 17.83,0.207 5.414,16.989 5.706,-16.894 z" /></g><g
           transform="translate(464.7595,303.8992)"
           id="g74"><path
             id="path76"
             style="fill:#009fd8;fill-opacity:1;fill-rule:nonzero;stroke:none"
             d="m 0,0 -14.304,-10.647 5.606,-16.927 -14.546,10.313 -14.366,-10.562 5.314,17.021 -14.485,10.399 17.83,0.207 5.414,16.989 5.706,-16.894 z" /></g><g
           transform="translate(705.9667,278.5078)"
           id="g78"><path
             id="path80"
             style="fill:#009fd8;fill-opacity:1;fill-rule:nonzero;stroke:none"
             d="m 0,0 -60.601,-45.109 23.751,-71.716 -61.628,43.696 -60.867,-44.75 22.513,72.114 -61.369,44.059 75.542,0.874 22.939,71.98 24.174,-71.575 z" /></g></g></g></g></svg>